<svg width="46" height="50" viewBox="0 0 46 50" fill="none" xmlns="http://www.w3.org/2000/svg">
<path d="M5.5 50C4.125 50 2.94792 49.5104 1.96875 48.5312C0.989583 47.5521 0.5 46.375 0.5 45V10C0.5 8.625 0.989583 7.44792 1.96875 6.46875C2.94792 5.48958 4.125 5 5.5 5H8V0H13V5H33V0H38V5H40.5C41.875 5 43.0521 5.48958 44.0312 6.46875C45.0104 7.44792 45.5 8.625 45.5 10V45C45.5 46.375 45.0104 47.5521 44.0312 48.5312C43.0521 49.5104 41.875 50 40.5 50H5.5ZM5.5 45H40.5V20H5.5V45ZM5.5 15H40.5V10H5.5V15ZM23 30C22.2917 30 21.6979 29.7604 21.2188 29.2812C20.7396 28.8021 20.5 28.2083 20.5 27.5C20.5 26.7917 20.7396 26.1979 21.2188 25.7188C21.6979 25.2396 22.2917 25 23 25C23.7083 25 24.3021 25.2396 24.7812 25.7188C25.2604 26.1979 25.5 26.7917 25.5 27.5C25.5 28.2083 25.2604 28.8021 24.7812 29.2812C24.3021 29.7604 23.7083 30 23 30ZM13 30C12.2917 30 11.6979 29.7604 11.2188 29.2812C10.7396 28.8021 10.5 28.2083 10.5 27.5C10.5 26.7917 10.7396 26.1979 11.2188 25.7188C11.6979 25.2396 12.2917 25 13 25C13.7083 25 14.3021 25.2396 14.7812 25.7188C15.2604 26.1979 15.5 26.7917 15.5 27.5C15.5 28.2083 15.2604 28.8021 14.7812 29.2812C14.3021 29.7604 13.7083 30 13 30ZM33 30C32.2917 30 31.6979 29.7604 31.2188 29.2812C30.7396 28.8021 30.5 28.2083 30.5 27.5C30.5 26.7917 30.7396 26.1979 31.2188 25.7188C31.6979 25.2396 32.2917 25 33 25C33.7083 25 34.3021 25.2396 34.7812 25.7188C35.2604 26.1979 35.5 26.7917 35.5 27.5C35.5 28.2083 35.2604 28.8021 34.7812 29.2812C34.3021 29.7604 33.7083 30 33 30ZM23 40C22.2917 40 21.6979 39.7604 21.2188 39.2812C20.7396 38.8021 20.5 38.2083 20.5 37.5C20.5 36.7917 20.7396 36.1979 21.2188 35.7188C21.6979 35.2396 22.2917 35 23 35C23.7083 35 24.3021 35.2396 24.7812 35.7188C25.2604 36.1979 25.5 36.7917 25.5 37.5C25.5 38.2083 25.2604 38.8021 24.7812 39.2812C24.3021 39.7604 23.7083 40 23 40ZM13 40C12.2917 40 11.6979 39.7604 11.2188 39.2812C10.7396 38.8021 10.5 38.2083 10.5 37.5C10.5 36.7917 10.7396 36.1979 11.2188 35.7188C11.6979 35.2396 12.2917 35 13 35C13.7083 35 14.3021 35.2396 14.7812 35.7188C15.2604 36.1979 15.5 36.7917 15.5 37.5C15.5 38.2083 15.2604 38.8021 14.7812 39.2812C14.3021 39.7604 13.7083 40 13 40ZM33 40C32.2917 40 31.6979 39.7604 31.2188 39.2812C30.7396 38.8021 30.5 38.2083 30.5 37.5C30.5 36.7917 30.7396 36.1979 31.2188 35.7188C31.6979 35.2396 32.2917 35 33 35C33.7083 35 34.3021 35.2396 34.7812 35.7188C35.2604 36.1979 35.5 36.7917 35.5 37.5C35.5 38.2083 35.2604 38.8021 34.7812 39.2812C34.3021 39.7604 33.7083 40 33 40Z" fill="white"/>
</svg>
